<svg width="243" height="25" viewBox="0 0 243 25" fill="none" xmlns="http://www.w3.org/2000/svg">
<path d="M36.7927 20V5.46H45.1127V6.64H37.6327L38.0427 6.1V12.06L37.7327 11.83H44.4927V12.99H37.7427L38.0427 12.77V20H36.7927ZM46.6755 20V9.09H47.6855L47.7955 13.27L47.5655 12.71C47.6122 12.31 47.7122 11.89 47.8655 11.45C48.0188 11.0033 48.2355 10.5833 48.5155 10.19C48.8022 9.79667 49.1622 9.47667 49.5955 9.23C50.0355 8.98333 50.5588 8.86 51.1655 8.86C51.2388 8.86 51.3055 8.86667 51.3655 8.88C51.4322 8.88667 51.4988 8.89667 51.5655 8.91V10.13C51.5188 10.11 51.4655 10.1 51.4055 10.1C51.3455 10.0933 51.2855 10.09 51.2255 10.09C50.7522 10.09 50.3222 10.17 49.9355 10.33C49.5488 10.4833 49.1888 10.7467 48.8555 11.12C48.5288 11.4933 48.2022 12 47.8755 12.64V20H46.6755ZM57.3486 20.15C56.4553 20.15 55.6586 19.9333 54.9586 19.5C54.2653 19.0667 53.7186 18.43 53.3186 17.59C52.9253 16.7433 52.7286 15.7067 52.7286 14.48C52.7286 13.32 52.9386 12.3233 53.3586 11.49C53.7853 10.65 54.3519 10.0067 55.0586 9.56C55.7653 9.10667 56.5419 8.88 57.3886 8.88C58.3153 8.88 59.1253 9.10667 59.8186 9.56C60.5119 10.0067 61.0519 10.65 61.4386 11.49C61.8253 12.3233 62.0186 13.32 62.0186 14.48C62.0186 15.7067 61.8019 16.7433 61.3686 17.59C60.9419 18.43 60.3719 19.0667 59.6586 19.5C58.9519 19.9333 58.1819 20.15 57.3486 20.15ZM57.3886 18.99C58.4486 18.99 59.2753 18.5967 59.8686 17.81C60.4619 17.0167 60.7586 15.9067 60.7586 14.48C60.7586 13.0667 60.4586 11.9733 59.8586 11.2C59.2586 10.4267 58.4219 10.04 57.3486 10.04C56.3153 10.04 55.4953 10.4333 54.8886 11.22C54.2886 12.0067 53.9886 13.0933 53.9886 14.48C53.9886 15.8933 54.2919 17 54.8986 17.8C55.5053 18.5933 56.3353 18.99 57.3886 18.99ZM64.7224 20V9.08H65.7224L65.8524 13.2L65.6724 12.37C65.759 11.6433 65.969 11.02 66.3024 10.5C66.6357 9.97333 67.0724 9.57 67.6124 9.29C68.1524 9.00333 68.779 8.86 69.4924 8.86C70.4057 8.86 71.1157 9.11 71.6224 9.61C72.129 10.11 72.439 10.8867 72.5524 11.94L72.5924 12.17V20H71.3924V12.63C71.3924 12.0167 71.319 11.52 71.1724 11.14C71.0324 10.76 70.8024 10.4833 70.4824 10.31C70.169 10.13 69.7557 10.04 69.2424 10.04C68.5157 10.04 67.9024 10.23 67.4024 10.61C66.9024 10.99 66.409 11.6433 65.9224 12.57V20H64.7224ZM78.0824 20V12.62C78.0824 12.0133 78.009 11.52 77.8624 11.14C77.7157 10.76 77.4824 10.4833 77.1624 10.31C76.849 10.13 76.4357 10.04 75.9224 10.04C75.2024 10.04 74.589 10.23 74.0824 10.61C73.5824 10.9833 73.0857 11.6367 72.5924 12.57L72.5124 13.2L72.3324 12.37C72.419 11.67 72.629 11.0567 72.9624 10.53C73.2957 10.0033 73.7324 9.59333 74.2724 9.3C74.8124 9.00667 75.4257 8.86 76.1124 8.86C77.1057 8.86 77.8824 9.16 78.4424 9.76C79.0024 10.36 79.2824 11.1967 79.2824 12.27V20H78.0824ZM88.1596 20V6.57L88.4096 5.46H89.4596V20H88.1596ZM85.1396 7.96V6.67C85.4529 6.67 85.7896 6.66667 86.1496 6.66C86.5096 6.65333 86.8596 6.60667 87.1996 6.52C87.5129 6.43333 87.7662 6.28333 87.9596 6.07C88.1596 5.85667 88.3096 5.65333 88.4096 5.46L88.1596 6.57C88.1396 6.78333 88.0462 7 87.8796 7.22C87.7129 7.44 87.4762 7.61 87.1696 7.73C86.9029 7.83667 86.6096 7.90333 86.2896 7.93C85.9762 7.95 85.5929 7.96 85.1396 7.96ZM94.8978 20V6.57L95.1478 5.46H96.1978V20H94.8978ZM91.8778 7.96V6.67C92.1912 6.67 92.5278 6.66667 92.8878 6.66C93.2478 6.65333 93.5978 6.60667 93.9378 6.52C94.2512 6.43333 94.5045 6.28333 94.6978 6.07C94.8978 5.85667 95.0478 5.65333 95.1478 5.46L94.8978 6.57C94.8778 6.78333 94.7845 7 94.6178 7.22C94.4512 7.44 94.2145 7.61 93.9078 7.73C93.6412 7.83667 93.3478 7.90333 93.0278 7.93C92.7145 7.95 92.3312 7.96 91.8778 7.96ZM102.042 20L106.902 5.46H108.942L113.792 20H112.462L110.982 15.54L111.702 16.08H103.882L104.502 14.9H111.312L110.912 15.33L108.672 8.59L107.912 6.33H107.902L107.162 8.59L103.372 20H102.042ZM115.875 20V5.46H118.125L121.395 14.3L122.445 18.1H122.475L123.505 14.3L126.715 5.46H128.965V20H127.715V11.51L127.815 6.26H127.745L125.885 11.37L122.985 20H121.985L118.965 11.37L117.095 6.26H117.025L117.125 11.51V20H115.875ZM138.855 20.12C138.015 20.12 137.405 19.9067 137.025 19.48C136.651 19.0533 136.465 18.4367 136.465 17.63V11.21C136.465 10.9967 136.508 10.7967 136.595 10.61C136.681 10.4167 136.808 10.2933 136.975 10.24L136.465 9.52V9.09L136.795 5.86H137.665V17.71C137.665 18.2167 137.785 18.55 138.025 18.71C138.265 18.8633 138.628 18.94 139.115 18.94C139.555 18.94 139.888 18.9333 140.115 18.92C140.348 18.9 140.648 18.8633 141.015 18.81V19.97C140.648 20.0367 140.281 20.0767 139.915 20.09C139.555 20.11 139.201 20.12 138.855 20.12ZM134.685 10.24V9.08H140.735V10.24H134.685ZM146.958 20.15C146.065 20.15 145.268 19.9333 144.568 19.5C143.875 19.0667 143.328 18.43 142.928 17.59C142.535 16.7433 142.338 15.7067 142.338 14.48C142.338 13.32 142.548 12.3233 142.968 11.49C143.395 10.65 143.961 10.0067 144.668 9.56C145.375 9.10667 146.151 8.88 146.998 8.88C147.925 8.88 148.735 9.10667 149.428 9.56C150.121 10.0067 150.661 10.65 151.048 11.49C151.435 12.3233 151.628 13.32 151.628 14.48C151.628 15.7067 151.411 16.7433 150.978 17.59C150.551 18.43 149.981 19.0667 149.268 19.5C148.561 19.9333 147.791 20.15 146.958 20.15ZM146.998 18.99C148.058 18.99 148.885 18.5967 149.478 17.81C150.071 17.0167 150.368 15.9067 150.368 14.48C150.368 13.0667 150.068 11.9733 149.468 11.2C148.868 10.4267 148.031 10.04 146.958 10.04C145.925 10.04 145.105 10.4333 144.498 11.22C143.898 12.0067 143.598 13.0933 143.598 14.48C143.598 15.8933 143.901 17 144.508 17.8C145.115 18.5933 145.945 18.99 146.998 18.99ZM159.703 20V6.57L159.953 5.46H161.003V20H159.703ZM156.683 7.96V6.67C156.996 6.67 157.333 6.66667 157.693 6.66C158.053 6.65333 158.403 6.60667 158.743 6.52C159.056 6.43333 159.309 6.28333 159.503 6.07C159.703 5.85667 159.853 5.65333 159.953 5.46L159.703 6.57C159.683 6.78333 159.589 7 159.423 7.22C159.256 7.44 159.019 7.61 158.713 7.73C158.446 7.83667 158.153 7.90333 157.833 7.93C157.519 7.95 157.136 7.96 156.683 7.96ZM169.186 20.3C168.119 20.3 167.222 20.0133 166.496 19.44C165.769 18.86 165.219 18.0033 164.846 16.87C164.479 15.73 164.296 14.32 164.296 12.64C164.296 11.04 164.479 9.68667 164.846 8.58C165.219 7.46667 165.769 6.62 166.496 6.04C167.222 5.46 168.119 5.17 169.186 5.17C170.252 5.17 171.142 5.46 171.856 6.04C172.576 6.62 173.119 7.46667 173.486 8.58C173.852 9.68667 174.036 11.04 174.036 12.64C174.036 14.32 173.852 15.73 173.486 16.87C173.119 18.0033 172.576 18.86 171.856 19.44C171.142 20.0133 170.252 20.3 169.186 20.3ZM169.186 19.1C169.926 19.1 170.559 18.88 171.086 18.44C171.619 18 172.026 17.3067 172.306 16.36C172.592 15.4133 172.736 14.18 172.736 12.66C172.736 11.1867 172.592 9.99 172.306 9.07C172.026 8.14333 171.619 7.46333 171.086 7.03C170.559 6.59 169.926 6.37 169.186 6.37C168.452 6.37 167.816 6.59 167.276 7.03C166.736 7.46333 166.319 8.14333 166.026 9.07C165.739 9.99 165.596 11.1867 165.596 12.66C165.596 14.18 165.739 15.4133 166.026 16.36C166.319 17.3067 166.732 18 167.266 18.44C167.806 18.88 168.446 19.1 169.186 19.1ZM182.25 14.26C181.997 14.26 181.804 14.2067 181.67 14.1C181.537 13.9867 181.47 13.8633 181.47 13.73L180.78 13.44L181.48 13.09H184.65C185.284 13.09 185.827 12.9433 186.28 12.65C186.74 12.35 187.09 11.9467 187.33 11.44C187.577 10.9333 187.7 10.3633 187.7 9.73C187.7 8.78333 187.424 8.03333 186.87 7.48C186.324 6.92 185.534 6.64 184.5 6.64H181.42L180.56 5.46C180.874 5.46 181.277 5.46 181.77 5.46C182.27 5.46 182.76 5.46 183.24 5.46C183.72 5.46 184.087 5.46 184.34 5.46C185.82 5.46 186.967 5.81333 187.78 6.52C188.594 7.22667 189 8.22667 189 9.52C189 10.24 188.89 10.89 188.67 11.47C188.45 12.05 188.134 12.55 187.72 12.97C187.314 13.3833 186.824 13.7033 186.25 13.93C185.684 14.15 185.047 14.26 184.34 14.26H182.25ZM180.23 20V5.46H181.48V20H180.23ZM191.461 20V5.46H193.711L196.981 14.3L198.031 18.1H198.061L199.091 14.3L202.301 5.46H204.551V20H203.301V11.51L203.401 6.26H203.331L201.471 11.37L198.571 20H197.571L194.551 11.37L192.681 6.26H192.611L192.711 11.51V20H191.461Z" fill="#303030"/>
<path d="M14.4799 2C21.1442 2 26.5463 6.477 26.5463 12C26.5463 17.523 21.1442 22 14.4799 22C7.81568 22 2.41357 17.523 2.41357 12C2.41357 6.477 7.81568 2 14.4799 2ZM14.4799 4C11.9198 4 9.46447 4.84285 7.65416 6.34315C5.84386 7.84344 4.82684 9.87827 4.82684 12C4.82684 14.1217 5.84386 16.1566 7.65416 17.6569C9.46447 19.1571 11.9198 20 14.4799 20C17.0401 20 19.4954 19.1571 21.3057 17.6569C23.116 16.1566 24.133 14.1217 24.133 12C24.133 9.87827 23.116 7.84344 21.3057 6.34315C19.4954 4.84285 17.0401 4 14.4799 4ZM14.4799 6C14.7755 6.00003 15.0607 6.08996 15.2816 6.25272C15.5024 6.41547 15.6435 6.63975 15.6781 6.883L15.6866 7V11.586L18.9529 14.293C19.1693 14.473 19.295 14.7144 19.3043 14.9684C19.3137 15.2223 19.206 15.4697 19.0033 15.6603C18.8005 15.8508 18.5179 15.9703 18.2127 15.9944C17.9075 16.0185 17.6027 15.9454 17.3602 15.79L17.2467 15.707L13.6268 12.707C13.4393 12.5514 13.3189 12.349 13.2841 12.131L13.2733 12V7C13.2733 6.73478 13.4004 6.48043 13.6267 6.29289C13.853 6.10536 14.1599 6 14.4799 6Z" fill="#303030"/>
</svg>
